<?xml version="1.0" encoding="utf-8"?>
<!-- Generator: Adobe Illustrator 19.2.1, SVG Export Plug-In . SVG Version: 6.00 Build 0)  -->
<svg version="1.1" id="Layer_1" xmlns="http://www.w3.org/2000/svg" xmlns:xlink="http://www.w3.org/1999/xlink" x="0px" y="0px"
	 viewBox="0 0 12 12" style="enable-background:new 0 0 12 12;" xml:space="preserve">
<style type="text/css">
	.st0{fill:#BABABA;}
</style>
<title>Untitled-1</title>
<g>
	<path class="st0" d="M11.88,6.3l-1.71,1.71c-0.08,0.08-0.19,0.13-0.3,0.13c-0.23,0-0.43-0.19-0.43-0.43V6.86H6.86v2.57h0.86
		c0.23,0,0.43,0.19,0.43,0.43c0,0.11-0.05,0.22-0.13,0.3L6.3,11.88C6.22,11.96,6.11,12,6,12s-0.22-0.05-0.3-0.13l-1.71-1.71
		c-0.08-0.08-0.13-0.19-0.13-0.3c0-0.23,0.19-0.43,0.43-0.43h0.86V6.86H2.57v0.86c0,0.23-0.19,0.43-0.43,0.43
		c-0.11,0-0.22-0.05-0.3-0.13L0.13,6.3C0.04,6.22,0,6.11,0,6s0.05-0.22,0.13-0.3l1.71-1.71c0.08-0.08,0.19-0.13,0.3-0.13
		c0.23,0,0.43,0.19,0.43,0.43v0.86h2.57V2.57H4.29c-0.23,0-0.43-0.19-0.43-0.43c0-0.11,0.05-0.22,0.13-0.3L5.7,0.13
		C5.78,0.04,5.89,0,6,0s0.22,0.05,0.3,0.13l1.71,1.71c0.08,0.08,0.13,0.19,0.13,0.3c0,0.23-0.19,0.43-0.43,0.43H6.86v2.57h2.57V4.29
		c0-0.23,0.19-0.43,0.43-0.43c0.11,0,0.22,0.05,0.3,0.13l1.71,1.71C11.96,5.78,12,5.89,12,6S11.96,6.22,11.88,6.3z"/>
</g>
</svg>
