<?xml version="1.0" encoding="utf-8"?>
<!-- Generator: Adobe Illustrator 19.2.1, SVG Export Plug-In . SVG Version: 6.00 Build 0)  -->
<svg version="1.1" id="Layer_1" xmlns="http://www.w3.org/2000/svg" xmlns:xlink="http://www.w3.org/1999/xlink" x="0px" y="0px"
	 viewBox="0 0 10 10" style="enable-background:new 0 0 10 10;" xml:space="preserve">
<style type="text/css">
	.st0{fill:#BABABA;}
</style>
<g>
	<path class="st0" d="M5.09,9.76L3.06,7.73L0.53,9.77C0.44,9.84,0.32,9.84,0.24,9.77l0,0C0.16,9.68,0.15,9.57,0.22,9.48l1.94-2.66
		L0.24,4.91c-0.17-0.17-0.17-0.44,0-0.61C1.02,3.53,2.34,3.38,2.97,4l2.43-2.43c-0.33-0.33-0.33-0.88,0-1.21s0.88-0.33,1.21,0
		l3.03,3.03c0.33,0.33,0.33,0.88,0,1.21s-0.88,0.33-1.21,0L6,7.03c0.62,0.62,0.47,1.95-0.3,2.73C5.53,9.93,5.26,9.93,5.09,9.76z
		 M6.3,2.79c0.09-0.09,0.09-0.22,0-0.3S6.08,2.4,6,2.49L3.88,4.61c-0.09,0.09-0.09,0.22,0,0.3s0.22,0.08,0.3,0L6.3,2.79z"/>
</g>
</svg>
