<?xml version="1.0" encoding="utf-8"?>
<!-- Generator: Adobe Illustrator 19.2.1, SVG Export Plug-In . SVG Version: 6.00 Build 0)  -->
<svg version="1.1" id="Layer_1" xmlns="http://www.w3.org/2000/svg" xmlns:xlink="http://www.w3.org/1999/xlink" x="0px" y="0px"
	 viewBox="0 0 10 10" style="enable-background:new 0 0 10 10;" xml:space="preserve">
<style type="text/css">
	.st0{fill:#BABABA;}
</style>
<g>
	<path class="st0" d="M8,4.14H2c-0.23,0-0.43-0.19-0.43-0.43c0-0.11,0.05-0.22,0.13-0.3l3-3C4.78,0.33,4.89,0.28,5,0.28
		s0.22,0.05,0.3,0.13l3,3c0.08,0.08,0.13,0.19,0.13,0.3C8.43,3.95,8.24,4.14,8,4.14z M8.3,6.59l-3,3C5.22,9.67,5.11,9.72,5,9.72
		S4.78,9.67,4.7,9.59l-3-3C1.62,6.51,1.57,6.4,1.57,6.29c0-0.23,0.19-0.43,0.43-0.43h6c0.23,0,0.43,0.19,0.43,0.43
		C8.43,6.4,8.38,6.51,8.3,6.59z"/>
</g>
</svg>
